<?xml version="1.0" encoding="UTF-8" standalone="no"?>
<!DOCTYPE svg PUBLIC "-//W3C//DTD SVG 1.1//EN" "http://www.w3.org/Graphics/SVG/1.1/DTD/svg11.dtd">
<svg width="100%" height="100%" viewBox="0 0 27 21" version="1.1" xmlns="http://www.w3.org/2000/svg" xmlns:xlink="http://www.w3.org/1999/xlink" xml:space="preserve" xmlns:serif="http://www.serif.com/" style="fill-rule:evenodd;clip-rule:evenodd;stroke-linejoin:round;stroke-miterlimit:2;">
    <g transform="matrix(1,0,0,1,-1.56,-0.91)">
        <path d="M1.56,16.9C1.56,17.8 1.78,18.63 2.22,19.39C2.66,20.15 3.26,20.75 4.02,21.19C4.78,21.63 5.6,21.85 6.49,21.85L17.32,21.85C18.21,21.85 19.04,21.63 19.8,21.19C20.56,20.75 21.17,20.15 21.61,19.39C22.05,18.63 22.28,17.8 22.28,16.9C22.28,16.24 22.14,15.57 21.86,14.9C22.62,13.98 23,12.87 23,11.6C23,10.89 22.86,10.21 22.59,9.56C22.32,8.91 21.94,8.36 21.47,7.89C21,7.42 20.45,7.04 19.8,6.77C19.15,6.49 18.47,6.36 17.76,6.36C16.28,6.36 14.99,6.94 13.88,8.1C13.11,7.66 12.21,7.44 11.18,7.44C9.77,7.44 8.53,7.88 7.45,8.75C6.37,9.62 5.67,10.74 5.37,12.1C4.25,12.36 3.34,12.93 2.63,13.83C1.92,14.73 1.56,15.75 1.56,16.9ZM3.27,16.9C3.27,16.06 3.55,15.34 4.11,14.73C4.67,14.12 5.37,13.77 6.21,13.67L6.71,13.64C6.83,13.64 6.9,13.58 6.9,13.46L6.97,12.92C7.11,11.84 7.58,10.93 8.38,10.21C9.18,9.48 10.12,9.12 11.19,9.12C12.29,9.12 13.25,9.49 14.06,10.22C14.88,10.95 15.33,11.85 15.43,12.93L15.5,13.51C15.52,13.62 15.59,13.68 15.71,13.68L17.32,13.68C18.2,13.68 18.96,14 19.6,14.64C20.24,15.28 20.56,16.03 20.56,16.91C20.56,17.82 20.24,18.59 19.61,19.23C18.98,19.87 18.21,20.19 17.33,20.19L6.49,20.19C5.61,20.19 4.86,19.87 4.22,19.22C3.59,18.57 3.27,17.8 3.27,16.9ZM9.97,4.63C9.97,4.87 10.05,5.08 10.21,5.26L10.87,5.9C11.12,6.09 11.33,6.17 11.51,6.15C11.72,6.15 11.9,6.06 12.06,5.89C12.22,5.72 12.3,5.51 12.3,5.27C12.3,5.03 12.21,4.83 12.04,4.68L11.45,4.02C11.27,3.86 11.07,3.78 10.84,3.78C10.6,3.78 10.39,3.86 10.22,4.03C10.05,4.19 9.97,4.39 9.97,4.63ZM15.31,9.06C16,8.39 16.82,8.06 17.76,8.06C18.75,8.06 19.59,8.4 20.28,9.09C20.97,9.78 21.32,10.61 21.32,11.6C21.32,12.22 21.15,12.84 20.81,13.44C19.84,12.48 18.68,12 17.32,12L17,12C16.75,10.91 16.19,9.93 15.31,9.06ZM16.94,3.78C16.94,4.04 17.02,4.24 17.17,4.4C17.32,4.56 17.52,4.63 17.76,4.63C18.02,4.63 18.22,4.55 18.38,4.4C18.54,4.24 18.61,4.04 18.61,3.78L18.61,1.73C18.61,1.49 18.53,1.3 18.37,1.14C18.21,0.98 18.01,0.91 17.76,0.91C17.52,0.91 17.33,0.99 17.17,1.14C17.01,1.29 16.94,1.49 16.94,1.73L16.94,3.78ZM22.46,6.07C22.46,6.33 22.53,6.53 22.68,6.69C22.89,6.85 23.1,6.93 23.3,6.93C23.48,6.93 23.68,6.85 23.89,6.69L25.32,5.26C25.48,5.08 25.56,4.87 25.56,4.62C25.56,4.38 25.48,4.18 25.32,4.02C25.16,3.86 24.96,3.78 24.73,3.78C24.49,3.78 24.3,3.86 24.15,4.02L22.68,5.45C22.53,5.64 22.46,5.84 22.46,6.07ZM23.25,17.91C23.25,18.15 23.33,18.36 23.5,18.54L24.15,19.17C24.3,19.33 24.49,19.41 24.73,19.41C24.97,19.41 25.17,19.33 25.33,19.16C25.49,18.99 25.57,18.79 25.57,18.54C25.57,18.32 25.49,18.12 25.33,17.96L24.68,17.31C24.52,17.15 24.33,17.07 24.11,17.07C23.87,17.07 23.67,17.15 23.51,17.31C23.34,17.47 23.25,17.67 23.25,17.91ZM24.72,11.6C24.72,11.83 24.81,12.02 24.98,12.18C25.14,12.34 25.35,12.42 25.59,12.42L27.63,12.42C27.86,12.42 28.05,12.34 28.21,12.19C28.37,12.04 28.44,11.84 28.44,11.6C28.44,11.36 28.36,11.16 28.21,11C28.06,10.84 27.86,10.75 27.63,10.75L25.59,10.75C25.35,10.75 25.15,10.83 24.98,11C24.8,11.17 24.72,11.37 24.72,11.6Z" style="fill:rgb(37,74,93);fill-rule:nonzero;"/>
    </g>
</svg>
