<?xml version="1.0" encoding="UTF-8" standalone="no"?>
<!DOCTYPE svg PUBLIC "-//W3C//DTD SVG 1.1//EN" "http://www.w3.org/Graphics/SVG/1.1/DTD/svg11.dtd">
<svg width="100%" height="100%" viewBox="0 0 22 17" version="1.1" xmlns="http://www.w3.org/2000/svg" xmlns:xlink="http://www.w3.org/1999/xlink" xml:space="preserve" xmlns:serif="http://www.serif.com/" style="fill-rule:evenodd;clip-rule:evenodd;stroke-linejoin:round;stroke-miterlimit:2;">
    <g transform="matrix(1,0,0,1,-4.14,-5.36)">
        <path d="M4.14,16.9C4.14,15.74 4.49,14.72 5.2,13.82C5.91,12.92 6.82,12.35 7.94,12.1C8.17,11.07 8.64,10.17 9.34,9.4C10.04,8.63 10.89,8.08 11.87,7.75C12.49,7.54 13.13,7.43 13.8,7.43C14.61,7.43 15.4,7.59 16.15,7.91C16.43,7.44 16.76,7.03 17.14,6.69C17.52,6.35 17.91,6.08 18.31,5.9C18.71,5.72 19.11,5.58 19.49,5.49C19.87,5.4 20.25,5.36 20.61,5.36C20.99,5.36 21.4,5.41 21.84,5.52L22.66,5.77C22.8,5.83 22.84,5.9 22.8,5.99L22.66,6.59C22.59,6.9 22.56,7.19 22.56,7.45C22.56,7.76 22.61,8.08 22.71,8.4C22.81,8.72 22.95,9.03 23.15,9.34C23.34,9.65 23.61,9.92 23.95,10.17C24.29,10.42 24.67,10.61 25.1,10.74L25.72,10.96C25.82,10.99 25.87,11.04 25.87,11.12C25.87,11.14 25.86,11.16 25.85,11.19L25.67,11.86C25.4,12.94 24.89,13.79 24.17,14.43C24.57,15.13 24.79,15.88 24.82,16.67C24.83,16.72 24.83,16.79 24.83,16.9C24.83,17.79 24.61,18.62 24.16,19.38C23.72,20.14 23.11,20.74 22.36,21.18C21.6,21.62 20.77,21.85 19.88,21.85L9.07,21.85C8.18,21.85 7.35,21.63 6.59,21.18C5.83,20.73 5.24,20.13 4.8,19.38C4.36,18.63 4.14,17.8 4.14,16.9ZM5.85,16.9C5.85,17.79 6.17,18.56 6.81,19.21C7.45,19.86 8.2,20.19 9.07,20.19L19.88,20.19C20.77,20.19 21.53,19.87 22.16,19.22C22.79,18.57 23.11,17.8 23.11,16.9C23.11,16.02 22.79,15.27 22.15,14.64C21.51,14.01 20.75,13.69 19.87,13.69L18.09,13.69L17.99,12.94C17.89,11.93 17.47,11.06 16.73,10.35C15.99,9.64 15.11,9.24 14.1,9.15C14.07,9.15 14.02,9.15 13.95,9.14C13.88,9.13 13.84,9.13 13.8,9.13C13.29,9.13 12.78,9.23 12.26,9.42L12.26,9.4C11.53,9.68 10.91,10.14 10.42,10.77C9.92,11.4 9.62,12.12 9.52,12.94L9.45,13.66L8.77,13.69C7.93,13.79 7.23,14.14 6.67,14.75C6.11,15.36 5.85,16.07 5.85,16.9ZM17.6,8.79C18.66,9.7 19.32,10.76 19.57,11.97L19.89,11.97C21.13,11.97 22.19,12.36 23.06,13.15C23.39,12.84 23.64,12.48 23.82,12.08C22.91,11.65 22.19,10.99 21.66,10.11C21.14,9.23 20.87,8.3 20.87,7.33L20.87,7.09C20.82,7.08 20.74,7.08 20.63,7.08C20.05,7.07 19.48,7.21 18.93,7.52C18.38,7.82 17.93,8.24 17.6,8.79Z" style="fill:rgb(37,74,93);fill-rule:nonzero;"/>
    </g>
</svg>
