<?xml version="1.0" encoding="UTF-8" standalone="no"?>
<!DOCTYPE svg PUBLIC "-//W3C//DTD SVG 1.1//EN" "http://www.w3.org/Graphics/SVG/1.1/DTD/svg11.dtd">
<svg width="100%" height="100%" viewBox="0 0 21 15" version="1.1" xmlns="http://www.w3.org/2000/svg" xmlns:xlink="http://www.w3.org/1999/xlink" xml:space="preserve" xmlns:serif="http://www.serif.com/" style="fill-rule:evenodd;clip-rule:evenodd;stroke-linejoin:round;stroke-miterlimit:2;">
    <g transform="matrix(1,0,0,1,-4.61,-7.39)">
        <path d="M4.61,16.88C4.61,15.73 4.97,14.71 5.69,13.81C6.41,12.91 7.32,12.33 8.43,12.08C8.74,10.71 9.45,9.59 10.54,8.71C11.63,7.83 12.89,7.39 14.3,7.39C15.68,7.39 16.91,7.82 17.99,8.67C19.07,9.52 19.77,10.62 20.09,11.96L20.42,11.96C21.32,11.96 22.15,12.18 22.91,12.61C23.67,13.04 24.28,13.64 24.72,14.4C25.16,15.16 25.39,15.98 25.39,16.88C25.39,17.76 25.18,18.58 24.76,19.33C24.34,20.08 23.76,20.68 23.03,21.13C22.3,21.58 21.49,21.82 20.62,21.85L9.41,21.85C8.07,21.79 6.94,21.28 6.01,20.32C5.08,19.37 4.61,18.22 4.61,16.88ZM6.32,16.88C6.32,17.75 6.62,18.5 7.22,19.14C7.82,19.78 8.55,20.12 9.41,20.17L20.6,20.17C21.46,20.13 22.19,19.78 22.79,19.14C23.4,18.5 23.7,17.74 23.7,16.88C23.7,16 23.37,15.25 22.72,14.61C22.07,13.97 21.3,13.65 20.4,13.65L18.8,13.65C18.69,13.65 18.63,13.59 18.63,13.47L18.56,12.9C18.45,11.82 17.98,10.91 17.16,10.18C16.34,9.45 15.39,9.08 14.3,9.08C13.21,9.08 12.25,9.45 11.45,10.18C10.64,10.91 10.18,11.82 10.08,12.9L10,13.47C10,13.59 9.93,13.65 9.8,13.65L9.27,13.65C8.43,13.75 7.73,14.11 7.17,14.72C6.61,15.33 6.32,16.05 6.32,16.88Z" style="fill:rgb(37,74,93);fill-rule:nonzero;"/>
    </g>
</svg>
