<?xml version="1.0" encoding="UTF-8" standalone="no"?>
<!DOCTYPE svg PUBLIC "-//W3C//DTD SVG 1.1//EN" "http://www.w3.org/Graphics/SVG/1.1/DTD/svg11.dtd">
<svg width="100%" height="100%" viewBox="0 0 23 15" version="1.1" xmlns="http://www.w3.org/2000/svg" xmlns:xlink="http://www.w3.org/1999/xlink" xml:space="preserve" xmlns:serif="http://www.serif.com/" style="fill-rule:evenodd;clip-rule:evenodd;stroke-linejoin:round;stroke-miterlimit:2;">
    <g transform="matrix(1,0,0,1,-3.89,-7.29986)">
        <path d="M3.89,17.6C3.89,16.61 4.2,15.72 4.82,14.95C5.44,14.18 6.23,13.68 7.2,13.46C7.46,12.29 8.05,11.32 8.98,10.58C9.91,9.83 10.98,9.46 12.2,9.46C13.38,9.46 14.44,9.82 15.36,10.55C16.29,11.28 16.89,12.21 17.16,13.35L17.43,13.35C18.61,13.35 19.61,13.76 20.44,14.59C21.27,15.42 21.69,16.42 21.69,17.59C21.69,18.77 21.27,19.77 20.44,20.6C19.61,21.43 18.61,21.85 17.43,21.85L8.16,21.85C7.58,21.85 7.03,21.74 6.51,21.51C5.99,21.28 5.52,21 5.14,20.62C4.76,20.24 4.46,19.78 4.23,19.26C4,18.74 3.89,18.17 3.89,17.6ZM5.34,17.6C5.34,18.36 5.62,19.02 6.16,19.56C6.7,20.1 7.37,20.38 8.15,20.38L17.43,20.38C18.2,20.38 18.87,20.11 19.42,19.56C19.97,19.01 20.25,18.36 20.25,17.6C20.25,16.84 19.98,16.18 19.42,15.64C18.87,15.1 18.21,14.82 17.43,14.82L16.04,14.82C15.94,14.82 15.89,14.77 15.89,14.67L15.82,14.18C15.72,13.24 15.32,12.45 14.63,11.83C13.94,11.21 13.12,10.9 12.18,10.9C11.24,10.9 10.42,11.21 9.72,11.84C9.02,12.46 8.63,13.25 8.54,14.18L8.47,14.6C8.47,14.7 8.42,14.75 8.31,14.75L7.86,14.82C7.14,14.88 6.54,15.18 6.05,15.71C5.59,16.24 5.34,16.87 5.34,17.6ZM14.19,8.88C14.09,8.97 14.11,9.04 14.26,9.09C14.69,9.28 15.05,9.46 15.34,9.64C15.45,9.67 15.53,9.66 15.56,9.61C16.17,9.04 16.87,8.75 17.68,8.75C18.49,8.75 19.18,9.02 19.78,9.56C20.37,10.1 20.7,10.77 20.77,11.56L20.86,12.2L22.28,12.2C22.93,12.2 23.49,12.43 23.96,12.9C24.43,13.37 24.66,13.92 24.66,14.56C24.66,15.16 24.45,15.68 24.04,16.13C23.63,16.58 23.12,16.83 22.51,16.9C22.41,16.9 22.36,16.95 22.36,17.06L22.36,18.19C22.36,18.3 22.41,18.35 22.51,18.35C23.52,18.29 24.37,17.89 25.06,17.16C25.75,16.43 26.1,15.56 26.1,14.56C26.1,13.5 25.73,12.6 24.98,11.86C24.23,11.11 23.33,10.74 22.28,10.74L22.13,10.74C21.87,9.74 21.32,8.92 20.48,8.27C19.65,7.62 18.71,7.3 17.68,7.3C16.28,7.29 15.11,7.82 14.19,8.88Z" style="fill:rgb(37,74,93);fill-rule:nonzero;"/>
    </g>
</svg>
