<?xml version="1.0" encoding="UTF-8" standalone="no"?>
<!DOCTYPE svg PUBLIC "-//W3C//DTD SVG 1.1//EN" "http://www.w3.org/Graphics/SVG/1.1/DTD/svg11.dtd">
<svg width="100%" height="100%" viewBox="0 0 27 27" version="1.1" xmlns="http://www.w3.org/2000/svg" xmlns:xlink="http://www.w3.org/1999/xlink" xml:space="preserve" xmlns:serif="http://www.serif.com/" style="fill-rule:evenodd;clip-rule:evenodd;stroke-linejoin:round;stroke-miterlimit:2;">
    <g transform="matrix(1,0,0,1,-1.51,-0.86)">
        <path d="M1.51,16.89C1.51,18.22 1.97,19.37 2.9,20.33C3.83,21.29 4.96,21.8 6.31,21.86C6.42,21.86 6.48,21.8 6.48,21.69L6.48,20.35C6.48,20.24 6.42,20.18 6.31,20.18C5.45,20.14 4.72,19.79 4.12,19.15C3.52,18.51 3.22,17.75 3.22,16.89C3.22,16.07 3.5,15.35 4.07,14.73C4.64,14.11 5.34,13.76 6.17,13.66L6.7,13.61C6.83,13.61 6.9,13.55 6.9,13.44L6.97,12.9C7.08,11.82 7.53,10.91 8.34,10.18C9.15,9.45 10.1,9.08 11.19,9.08C12.28,9.08 13.23,9.45 14.05,10.18C14.87,10.91 15.33,11.82 15.45,12.9L15.52,13.47C15.52,13.59 15.58,13.66 15.69,13.66L17.31,13.66C18.2,13.66 18.96,13.98 19.61,14.62C20.26,15.26 20.58,16.01 20.58,16.89C20.58,17.76 20.28,18.51 19.68,19.15C19.08,19.79 18.35,20.13 17.5,20.18C17.38,20.18 17.31,20.24 17.31,20.35L17.31,21.69C17.31,21.8 17.37,21.86 17.5,21.86C18.83,21.82 19.96,21.31 20.89,20.35C21.82,19.38 22.28,18.23 22.28,16.9C22.28,16.18 22.14,15.51 21.86,14.89C22.64,13.92 23.03,12.82 23.03,11.58C23.03,10.63 22.79,9.75 22.32,8.94C21.85,8.13 21.21,7.49 20.4,7.02C19.59,6.55 18.72,6.32 17.78,6.32C16.22,6.32 14.93,6.9 13.9,8.06C13.08,7.62 12.18,7.4 11.19,7.4C9.78,7.4 8.52,7.84 7.43,8.72C6.34,9.6 5.64,10.72 5.33,12.08C4.22,12.34 3.31,12.92 2.59,13.82C1.87,14.72 1.51,15.74 1.51,16.89ZM6.91,23.75C6.91,23.92 6.96,24.08 7.07,24.24C7.18,24.4 7.34,24.51 7.56,24.57C7.67,24.59 7.76,24.61 7.83,24.61C8.22,24.61 8.48,24.4 8.6,23.97L10.18,18.09C10.25,17.85 10.22,17.63 10.1,17.42C9.98,17.21 9.8,17.09 9.57,17.04C9.35,16.97 9.14,16.99 8.94,17.11C8.74,17.22 8.6,17.39 8.53,17.62L6.95,23.53C6.93,23.66 6.91,23.73 6.91,23.75ZM9.52,26.83C9.52,27.02 9.57,27.19 9.67,27.35C9.77,27.51 9.94,27.61 10.19,27.65C10.3,27.67 10.39,27.69 10.45,27.69C10.61,27.69 10.76,27.63 10.9,27.52C11.04,27.4 11.13,27.24 11.17,27.04L13.57,18.11C13.63,17.88 13.61,17.66 13.5,17.47C13.39,17.28 13.22,17.14 13,17.07C12.77,17 12.55,17.02 12.35,17.14C12.15,17.25 12.01,17.42 11.95,17.65L9.55,26.58C9.53,26.73 9.52,26.82 9.52,26.83ZM9.94,4.6C9.94,4.84 10.02,5.04 10.19,5.21L10.84,5.87C11.03,6.02 11.24,6.09 11.46,6.09C11.67,6.09 11.87,6.01 12.04,5.86C12.21,5.7 12.3,5.51 12.3,5.27C12.3,5.03 12.22,4.81 12.06,4.63L11.42,3.98C11.24,3.81 11.04,3.73 10.82,3.73C10.58,3.73 10.37,3.82 10.2,3.99C10.03,4.16 9.94,4.37 9.94,4.6ZM13.67,23.77C13.67,23.93 13.72,24.09 13.82,24.24C13.92,24.39 14.08,24.5 14.28,24.56C14.39,24.58 14.48,24.6 14.53,24.6C14.7,24.6 14.87,24.55 15.02,24.45C15.17,24.35 15.27,24.19 15.32,23.96L16.9,18.08C16.96,17.85 16.94,17.63 16.83,17.44C16.72,17.24 16.55,17.11 16.33,17.04C16.09,16.97 15.88,16.99 15.68,17.11C15.48,17.22 15.35,17.39 15.29,17.62L13.71,23.53C13.69,23.68 13.67,23.76 13.67,23.77ZM15.3,9.03C16.01,8.36 16.83,8.03 17.78,8.03C18.76,8.03 19.6,8.38 20.28,9.07C20.97,9.76 21.31,10.6 21.31,11.59C21.31,12.21 21.14,12.83 20.79,13.44C19.82,12.47 18.66,11.99 17.3,11.99L16.97,11.99C16.7,10.81 16.14,9.83 15.3,9.03ZM16.92,3.78C16.92,4.01 17,4.21 17.17,4.37C17.34,4.53 17.54,4.61 17.78,4.61C18.01,4.61 18.21,4.53 18.37,4.38C18.53,4.22 18.61,4.03 18.61,3.79L18.61,1.73C18.61,1.47 18.53,1.26 18.38,1.1C18.22,0.94 18.03,0.86 17.79,0.86C17.54,0.86 17.33,0.94 17.17,1.11C17.01,1.28 16.93,1.48 16.93,1.73L16.93,3.78L16.92,3.78ZM22.45,6.06C22.45,6.3 22.54,6.5 22.72,6.65C22.86,6.81 23.04,6.89 23.27,6.91C23.5,6.93 23.71,6.84 23.89,6.65L25.33,5.22C25.51,5.05 25.59,4.84 25.59,4.59C25.59,4.35 25.51,4.14 25.34,3.98C25.17,3.82 24.97,3.74 24.73,3.74C24.52,3.74 24.33,3.82 24.15,3.99L22.72,5.43C22.54,5.6 22.45,5.81 22.45,6.06ZM23.26,17.91C23.26,18.15 23.34,18.36 23.5,18.54L24.15,19.17C24.33,19.31 24.53,19.38 24.75,19.38L24.77,19.4C25,19.4 25.19,19.32 25.35,19.16C25.51,19 25.59,18.79 25.59,18.55C25.59,18.31 25.5,18.12 25.33,17.97L24.71,17.31C24.53,17.15 24.32,17.07 24.09,17.07C23.86,17.07 23.66,17.15 23.5,17.32C23.34,17.49 23.26,17.67 23.26,17.91ZM24.72,11.58C24.72,11.82 24.81,12.01 24.98,12.17C25.16,12.35 25.36,12.43 25.6,12.43L27.63,12.43C27.87,12.43 28.07,12.35 28.24,12.18C28.41,12.01 28.49,11.81 28.49,11.58C28.49,11.34 28.41,11.14 28.24,10.97C28.07,10.8 27.87,10.71 27.63,10.71L25.6,10.71C25.36,10.71 25.16,10.8 24.98,10.97C24.8,11.14 24.72,11.34 24.72,11.58Z" style="fill:rgb(37,74,93);fill-rule:nonzero;"/>
    </g>
</svg>
