<?xml version="1.0" encoding="UTF-8" standalone="no"?>
<!DOCTYPE svg PUBLIC "-//W3C//DTD SVG 1.1//EN" "http://www.w3.org/Graphics/SVG/1.1/DTD/svg11.dtd">
<svg width="100%" height="100%" viewBox="0 0 22 23" version="1.1" xmlns="http://www.w3.org/2000/svg" xmlns:xlink="http://www.w3.org/1999/xlink" xml:space="preserve" xmlns:serif="http://www.serif.com/" style="fill-rule:evenodd;clip-rule:evenodd;stroke-linejoin:round;stroke-miterlimit:2;">
    <g transform="matrix(1,0,0,1,-4.07,-5.3)">
        <path d="M4.07,16.9C4.07,18.23 4.54,19.38 5.47,20.34C6.4,21.3 7.54,21.81 8.87,21.87C8.99,21.87 9.05,21.81 9.05,21.7L9.05,20.36C9.05,20.25 8.99,20.19 8.87,20.19C8.01,20.14 7.28,19.8 6.68,19.16C6.08,18.52 5.78,17.77 5.78,16.9C5.78,16.07 6.06,15.35 6.63,14.73C7.2,14.11 7.9,13.76 8.73,13.66L9.26,13.62C9.39,13.62 9.46,13.56 9.46,13.45L9.53,12.91C9.64,11.83 10.1,10.92 10.91,10.19C11.72,9.46 12.68,9.09 13.77,9.09C14.86,9.09 15.81,9.46 16.63,10.19C17.45,10.92 17.91,11.83 18.03,12.91L18.11,13.48C18.11,13.6 18.17,13.66 18.28,13.66L19.9,13.66C20.79,13.66 21.57,13.98 22.22,14.62C22.87,15.26 23.2,16.02 23.2,16.9C23.2,17.77 22.9,18.52 22.3,19.16C21.7,19.8 20.97,20.14 20.11,20.19C19.97,20.19 19.9,20.25 19.9,20.36L19.9,21.7C19.9,21.81 19.97,21.87 20.11,21.87C21.44,21.83 22.57,21.32 23.49,20.36C24.42,19.39 24.88,18.24 24.88,16.91C24.88,16.03 24.65,15.21 24.2,14.45C25.01,13.72 25.53,12.85 25.78,11.83L25.92,11.11C25.93,11.1 25.94,11.08 25.94,11.04C25.94,10.97 25.89,10.91 25.78,10.88L25.22,10.7C24.65,10.54 24.16,10.26 23.76,9.87C23.35,9.48 23.06,9.07 22.89,8.64C22.72,8.21 22.63,7.78 22.63,7.36C22.61,7.14 22.64,6.86 22.71,6.54L22.85,5.93C22.89,5.83 22.85,5.75 22.71,5.69L21.92,5.45C21.47,5.35 21.05,5.3 20.65,5.3C20.27,5.3 19.89,5.34 19.51,5.43C19.12,5.52 18.72,5.65 18.31,5.84C17.9,6.02 17.5,6.29 17.11,6.64C16.72,6.99 16.39,7.39 16.11,7.86C15.29,7.56 14.51,7.41 13.78,7.41C12.37,7.41 11.11,7.85 10.02,8.73C8.93,9.61 8.22,10.73 7.91,12.1C6.8,12.36 5.89,12.93 5.17,13.83C4.43,14.72 4.07,15.75 4.07,16.9ZM9.63,23.74C9.63,23.91 9.68,24.07 9.79,24.23C9.9,24.39 10.06,24.5 10.28,24.56C10.51,24.63 10.73,24.61 10.92,24.52C11.12,24.42 11.25,24.24 11.32,23.96L12.75,18.09C12.81,17.84 12.78,17.61 12.67,17.42C12.55,17.22 12.38,17.1 12.15,17.05C11.93,16.98 11.72,17 11.52,17.12C11.32,17.23 11.18,17.4 11.11,17.63L9.67,23.53C9.67,23.54 9.66,23.57 9.65,23.62C9.64,23.67 9.63,23.71 9.63,23.74ZM12.24,26.81C12.24,26.97 12.29,27.12 12.39,27.27C12.49,27.42 12.64,27.52 12.84,27.58C12.95,27.61 13.03,27.62 13.08,27.62C13.52,27.62 13.79,27.42 13.9,27.03L16.15,18.1C16.21,17.86 16.19,17.64 16.08,17.45C15.97,17.26 15.8,17.13 15.58,17.06C15.35,16.99 15.13,17.01 14.92,17.13C14.71,17.25 14.58,17.41 14.53,17.63L12.27,26.55C12.27,26.56 12.27,26.6 12.26,26.67C12.24,26.73 12.24,26.78 12.24,26.81ZM16.4,23.82C16.4,24.18 16.61,24.42 17.03,24.56C17.17,24.6 17.27,24.62 17.33,24.62C17.44,24.62 17.56,24.6 17.68,24.55C17.89,24.47 18.02,24.27 18.07,23.97L19.5,18.1C19.56,17.86 19.54,17.65 19.42,17.45C19.31,17.26 19.14,17.13 18.91,17.06C18.68,16.99 18.46,17.01 18.25,17.13C18.04,17.24 17.92,17.41 17.87,17.64L16.44,23.54C16.42,23.7 16.4,23.8 16.4,23.82ZM17.58,8.77C17.9,8.19 18.33,7.75 18.89,7.44C19.44,7.14 20.03,6.99 20.65,7C20.77,7 20.86,7 20.92,7.01L20.92,7.31C20.91,8.28 21.16,9.19 21.69,10.06C22.21,10.92 22.95,11.58 23.9,12.03C23.68,12.49 23.41,12.84 23.11,13.1C22.19,12.34 21.12,11.97 19.88,11.97L19.57,11.97C19.3,10.7 18.64,9.64 17.58,8.77Z" style="fill:rgb(37,74,93);fill-rule:nonzero;"/>
    </g>
</svg>
