<?xml version="1.0" encoding="UTF-8" standalone="no"?>
<!DOCTYPE svg PUBLIC "-//W3C//DTD SVG 1.1//EN" "http://www.w3.org/Graphics/SVG/1.1/DTD/svg11.dtd">
<svg width="100%" height="100%" viewBox="0 0 21 21" version="1.1" xmlns="http://www.w3.org/2000/svg" xmlns:xlink="http://www.w3.org/1999/xlink" xml:space="preserve" xmlns:serif="http://www.serif.com/" style="fill-rule:evenodd;clip-rule:evenodd;stroke-linejoin:round;stroke-miterlimit:2;">
    <g transform="matrix(1,0,0,1,-4.63,-7.41)">
        <path d="M4.63,16.91C4.63,18.02 4.96,19.01 5.62,19.88C6.28,20.75 7.14,21.35 8.2,21.67L7.54,23.35C7.51,23.49 7.56,23.57 7.68,23.57L9.81,23.57L8.83,27.87L9.11,27.87L13.03,22.12C13.07,22.08 13.07,22.03 13.04,21.98C13.01,21.93 12.96,21.91 12.89,21.91L10.71,21.91L13.19,17.27C13.26,17.13 13.21,17.05 13.05,17.05L10.11,17.05C10.02,17.05 9.94,17.1 9.88,17.2L8.81,20.07C8.1,19.89 7.51,19.5 7.04,18.91C6.57,18.32 6.34,17.65 6.34,16.9C6.34,16.07 6.62,15.35 7.19,14.73C7.76,14.12 8.46,13.76 9.29,13.66L9.82,13.59C9.95,13.59 10.02,13.53 10.02,13.41L10.09,12.9C10.2,11.82 10.65,10.91 11.46,10.18C12.27,9.45 13.22,9.08 14.31,9.08C15.4,9.08 16.35,9.45 17.16,10.18C17.98,10.91 18.44,11.82 18.56,12.9L18.63,13.48C18.63,13.59 18.69,13.65 18.81,13.65L20.41,13.65C21.32,13.65 22.09,13.97 22.73,14.6C23.37,15.23 23.7,16 23.7,16.88C23.7,17.73 23.4,18.47 22.81,19.09C22.22,19.71 21.48,20.06 20.61,20.13C20.48,20.13 20.41,20.19 20.41,20.31L20.41,21.68C20.41,21.79 20.48,21.85 20.61,21.85C21.94,21.81 23.07,21.3 24,20.34C24.93,19.38 25.39,18.23 25.39,16.89C25.39,15.99 25.17,15.16 24.72,14.4C24.28,13.64 23.67,13.04 22.91,12.6C22.14,12.16 21.31,11.94 20.41,11.94L20.1,11.94C19.77,10.61 19.06,9.52 17.99,8.68C16.92,7.84 15.69,7.41 14.31,7.41C12.9,7.41 11.64,7.85 10.55,8.72C9.46,9.59 8.76,10.71 8.45,12.08C7.34,12.34 6.43,12.91 5.71,13.81C4.99,14.71 4.63,15.76 4.63,16.91ZM12.77,26.62C12.77,27.01 12.96,27.27 13.35,27.39C13.36,27.39 13.4,27.39 13.46,27.4C13.52,27.41 13.57,27.41 13.6,27.41C13.77,27.41 13.93,27.36 14.09,27.26C14.25,27.16 14.36,27 14.41,26.78L16.66,18.09C16.72,17.85 16.7,17.64 16.59,17.44C16.48,17.25 16.32,17.12 16.09,17.05C15.92,17.03 15.83,17.02 15.83,17.02C15.67,17.02 15.51,17.07 15.36,17.17C15.21,17.27 15.1,17.42 15.05,17.62L12.79,26.34C12.78,26.44 12.77,26.53 12.77,26.62ZM16.93,23.56C16.93,23.69 16.96,23.82 17.03,23.94C17.17,24.16 17.34,24.31 17.54,24.38C17.65,24.41 17.75,24.43 17.84,24.43C17.93,24.43 18.04,24.41 18.16,24.35C18.37,24.26 18.51,24.07 18.58,23.78L20.02,18.11C20.05,17.97 20.07,17.88 20.07,17.84C20.07,17.69 20.02,17.54 19.91,17.39C19.8,17.24 19.65,17.13 19.45,17.07C19.28,17.05 19.19,17.04 19.19,17.04C19.02,17.04 18.86,17.09 18.72,17.19C18.58,17.29 18.48,17.44 18.42,17.64L16.96,23.34C16.96,23.36 16.96,23.39 16.95,23.45C16.93,23.5 16.93,23.53 16.93,23.56Z" style="fill:rgb(37,74,93);fill-rule:nonzero;"/>
    </g>
</svg>
