<?xml version="1.0" encoding="UTF-8" standalone="no"?>
<!DOCTYPE svg PUBLIC "-//W3C//DTD SVG 1.1//EN" "http://www.w3.org/Graphics/SVG/1.1/DTD/svg11.dtd">
<svg width="100%" height="100%" viewBox="0 0 21 20" version="1.1" xmlns="http://www.w3.org/2000/svg" xmlns:xlink="http://www.w3.org/1999/xlink" xml:space="preserve" xmlns:serif="http://www.serif.com/" style="fill-rule:evenodd;clip-rule:evenodd;stroke-linejoin:round;stroke-miterlimit:2;">
    <g transform="matrix(1,0,0,1,-4.64,-7.44)">
        <path d="M4.64,16.95C4.64,15.79 4.99,14.77 5.7,13.87C6.41,12.97 7.32,12.39 8.44,12.11C8.75,10.75 9.45,9.63 10.54,8.75C11.63,7.87 12.88,7.44 14.29,7.44C15.67,7.44 16.89,7.87 17.97,8.72C19.05,9.57 19.75,10.67 20.07,12.01L20.39,12.01C21.28,12.01 22.11,12.23 22.87,12.67C23.63,13.11 24.24,13.71 24.68,14.47C25.12,15.23 25.35,16.06 25.35,16.95C25.35,18.27 24.89,19.42 23.96,20.37C23.04,21.33 21.91,21.83 20.58,21.87C20.45,21.87 20.38,21.81 20.38,21.7L20.38,20.37C20.38,20.25 20.45,20.19 20.58,20.19C21.43,20.15 22.16,19.81 22.76,19.17C23.36,18.53 23.66,17.79 23.66,16.94C23.66,16.05 23.34,15.29 22.69,14.64C22.04,13.99 21.27,13.67 20.37,13.67L18.76,13.67C18.64,13.67 18.58,13.61 18.58,13.5L18.5,12.92C18.39,11.84 17.92,10.93 17.11,10.2C16.29,9.47 15.35,9.1 14.26,9.1C13.16,9.1 12.21,9.47 11.4,10.21C10.59,10.95 10.13,11.86 10.03,12.96L9.97,13.46C9.97,13.58 9.9,13.65 9.77,13.65L9.24,13.72C8.41,13.79 7.71,14.13 7.14,14.76C6.57,15.39 6.29,16.11 6.29,16.95C6.29,17.8 6.59,18.54 7.19,19.18C7.79,19.82 8.52,20.15 9.37,20.2C9.48,20.2 9.54,20.26 9.54,20.38L9.54,21.71C9.54,21.82 9.48,21.88 9.37,21.88C8.03,21.84 6.9,21.34 5.97,20.38C5.1,19.42 4.64,18.27 4.64,16.95ZM11,21.02C11,20.8 11.08,20.6 11.24,20.44C11.4,20.28 11.59,20.2 11.83,20.2C12.06,20.2 12.26,20.28 12.42,20.44C12.58,20.6 12.66,20.8 12.66,21.02C12.66,21.26 12.58,21.46 12.42,21.62C12.26,21.79 12.07,21.87 11.83,21.87C11.6,21.87 11.4,21.79 11.24,21.62C11.08,21.46 11,21.26 11,21.02ZM11,24.65C11,24.41 11.08,24.21 11.24,24.05C11.4,23.9 11.59,23.82 11.82,23.82C12.05,23.82 12.25,23.9 12.41,24.05C12.57,24.21 12.65,24.4 12.65,24.64C12.65,24.88 12.57,25.07 12.41,25.23C12.25,25.39 12.06,25.46 11.82,25.46C11.59,25.46 11.39,25.38 11.23,25.23C11.08,25.08 11,24.88 11,24.65ZM14.19,22.95C14.19,22.72 14.27,22.51 14.44,22.33C14.6,22.17 14.79,22.09 15.01,22.09C15.24,22.09 15.44,22.18 15.61,22.35C15.78,22.52 15.87,22.72 15.87,22.95C15.87,23.18 15.79,23.38 15.62,23.55C15.45,23.72 15.25,23.8 15.01,23.8C14.78,23.8 14.59,23.72 14.43,23.55C14.27,23.38 14.19,23.18 14.19,22.95ZM14.19,19.33C14.19,19.1 14.27,18.9 14.44,18.73C14.62,18.57 14.81,18.49 15.01,18.49C15.25,18.49 15.45,18.57 15.62,18.74C15.79,18.91 15.87,19.1 15.87,19.34C15.87,19.57 15.79,19.77 15.62,19.93C15.45,20.09 15.25,20.17 15.01,20.17C14.78,20.17 14.59,20.09 14.43,19.93C14.27,19.76 14.19,19.56 14.19,19.33ZM14.19,26.61C14.19,26.38 14.27,26.18 14.44,26C14.6,25.84 14.79,25.76 15.01,25.76C15.25,25.76 15.45,25.84 15.62,26.01C15.79,26.18 15.87,26.38 15.87,26.61C15.87,26.84 15.79,27.04 15.62,27.2C15.45,27.36 15.25,27.44 15.01,27.44C14.78,27.44 14.59,27.36 14.43,27.2C14.27,27.03 14.19,26.84 14.19,26.61ZM17.41,21.02C17.41,20.8 17.49,20.61 17.66,20.44C17.83,20.27 18.03,20.19 18.26,20.19C18.49,20.19 18.69,20.27 18.85,20.43C19.01,20.59 19.09,20.79 19.09,21.01C19.09,21.25 19.01,21.45 18.85,21.61C18.69,21.78 18.5,21.86 18.26,21.86C18.02,21.86 17.82,21.78 17.66,21.61C17.5,21.45 17.41,21.25 17.41,21.02ZM17.41,24.65C17.41,24.43 17.49,24.23 17.66,24.05C17.82,23.9 18.02,23.82 18.26,23.82C18.5,23.82 18.69,23.9 18.85,24.05C19.01,24.2 19.08,24.4 19.08,24.64C19.08,24.88 19,25.07 18.85,25.23C18.69,25.39 18.5,25.46 18.26,25.46C18.02,25.46 17.82,25.38 17.66,25.22C17.5,25.07 17.41,24.88 17.41,24.65Z" style="fill:rgb(37,74,93);fill-rule:nonzero;"/>
    </g>
</svg>
