<?xml version="1.0" encoding="UTF-8" standalone="no"?>
<!DOCTYPE svg PUBLIC "-//W3C//DTD SVG 1.1//EN" "http://www.w3.org/Graphics/SVG/1.1/DTD/svg11.dtd">
<svg width="100%" height="100%" viewBox="0 0 21 8" version="1.1" xmlns="http://www.w3.org/2000/svg" xmlns:xlink="http://www.w3.org/1999/xlink" xml:space="preserve" xmlns:serif="http://www.serif.com/" style="fill-rule:evenodd;clip-rule:evenodd;stroke-linejoin:round;stroke-miterlimit:2;">
    <g transform="matrix(1,0,0,1,-4.65,-11.82)">
        <path d="M4.65,15.5C4.65,15.28 4.73,15.09 4.88,14.94C5.04,14.79 5.23,14.72 5.45,14.72L17.53,14.72C17.75,14.72 17.93,14.79 18.07,14.94C18.21,15.09 18.29,15.28 18.29,15.51C18.29,15.73 18.22,15.91 18.07,16.05C17.93,16.19 17.75,16.27 17.53,16.27L5.45,16.27C5.23,16.27 5.03,16.2 4.88,16.05C4.72,15.9 4.65,15.72 4.65,15.5ZM7.06,12.6C7.06,12.38 7.14,12.2 7.29,12.05C7.44,11.9 7.63,11.82 7.85,11.82L19.94,11.82C20.15,11.82 20.33,11.9 20.48,12.05C20.63,12.2 20.7,12.38 20.7,12.6C20.7,12.82 20.63,13 20.48,13.16C20.33,13.31 20.15,13.39 19.94,13.39L7.86,13.39C7.64,13.39 7.45,13.31 7.3,13.16C7.15,13.01 7.06,12.82 7.06,12.6ZM8.68,18.34C8.68,18.13 8.76,17.95 8.92,17.8C9.06,17.66 9.24,17.58 9.46,17.58L21.56,17.58C21.78,17.58 21.97,17.65 22.12,17.8C22.27,17.94 22.34,18.12 22.34,18.34C22.34,18.56 22.26,18.75 22.11,18.9C21.96,19.05 21.77,19.13 21.55,19.13L9.46,19.13C9.24,19.13 9.06,19.05 8.9,18.9C8.74,18.75 8.68,18.56 8.68,18.34ZM19.26,15.5C19.26,15.27 19.33,15.08 19.48,14.93C19.63,14.78 19.82,14.71 20.05,14.71L24.57,14.71C24.8,14.71 24.99,14.78 25.14,14.93C25.29,15.08 25.36,15.27 25.36,15.49C25.36,15.71 25.29,15.89 25.14,16.03C24.99,16.17 24.8,16.25 24.58,16.25L20.06,16.25C19.83,16.25 19.64,16.18 19.49,16.03C19.33,15.9 19.26,15.72 19.26,15.5Z" style="fill:rgb(37,74,93);fill-rule:nonzero;"/>
    </g>
</svg>
