<?xml version="1.0" encoding="UTF-8" standalone="no"?>
<!DOCTYPE svg PUBLIC "-//W3C//DTD SVG 1.1//EN" "http://www.w3.org/Graphics/SVG/1.1/DTD/svg11.dtd">
<svg width="100%" height="100%" viewBox="0 0 1692 55" version="1.1" xmlns="http://www.w3.org/2000/svg" xmlns:xlink="http://www.w3.org/1999/xlink" xml:space="preserve" xmlns:serif="http://www.serif.com/" style="fill-rule:evenodd;clip-rule:evenodd;stroke-linejoin:round;stroke-miterlimit:2;">
    <g transform="matrix(1,0,0,1,-111.273,-454.499)">
        <g transform="matrix(1,0,0,1,121.346,454.499)">
            <rect x="426" y="0" width="165" height="55" style="fill:rgb(218,197,123);"/>
        </g>
        <g transform="matrix(1,0,0,1,126.382,454.499)">
            <rect x="639" y="0" width="165" height="55" style="fill:rgb(165,218,123);"/>
        </g>
        <g transform="matrix(1,0,0,1,116.309,454.499)">
            <rect x="213" y="0" width="165" height="55" style="fill:rgb(199,123,81);"/>
        </g>
        <g transform="matrix(1,0,0,1,111.273,454.499)">
            <rect x="0" y="0" width="165" height="55" style="fill:rgb(212,123,123);"/>
        </g>
        <g transform="matrix(1,0,0,1,993.49,297.499)">
            <rect x="426" y="157" width="165" height="55" style="fill:rgb(188,123,218);"/>
        </g>
        <g transform="matrix(1,0,0,1,998.526,297.499)">
            <rect x="639" y="157" width="165" height="55" style="fill:rgb(216,123,218);"/>
        </g>
        <g transform="matrix(1,0,0,1,988.454,297.499)">
            <rect x="213" y="157" width="165" height="55" style="fill:rgb(81,185,199);"/>
        </g>
        <g transform="matrix(1,0,0,1,983.418,297.499)">
            <rect x="0" y="157" width="165" height="55" style="fill:rgb(123,204,212);"/>
        </g>
    </g>
</svg>
