<?xml version="1.0" encoding="UTF-8" standalone="no"?>
<!DOCTYPE svg PUBLIC "-//W3C//DTD SVG 1.1//EN" "http://www.w3.org/Graphics/SVG/1.1/DTD/svg11.dtd">
<svg width="100%" height="100%" viewBox="0 0 531 87" version="1.1" xmlns="http://www.w3.org/2000/svg" xmlns:xlink="http://www.w3.org/1999/xlink" xml:space="preserve" xmlns:serif="http://www.serif.com/" style="fill-rule:evenodd;clip-rule:evenodd;stroke-linejoin:round;stroke-miterlimit:2;">
    <g transform="matrix(1,0,0,1,-8.8899,-516.336)">
        <g transform="matrix(1.88735,0,0,2.04916,8.72729,514.643)">
            <path d="M13.428,43C12.924,43 12.474,42.838 12.078,42.514C11.718,42.19 11.466,41.776 11.322,41.272L0.252,3.85C0,2.986 0.036,2.266 0.36,1.69C0.72,1.114 1.278,0.826 2.034,0.826C2.466,0.826 2.862,0.952 3.222,1.204C3.618,1.42 3.906,1.834 4.086,2.446L14.076,37.222L12.834,37.222L22.284,3.364C22.392,2.968 22.626,2.644 22.985,2.392C23.382,2.14 23.814,2.014 24.282,2.014C24.714,2.014 25.128,2.14 25.523,2.392C25.92,2.608 26.172,2.95 26.28,3.418L35.783,37.222L34.542,37.222L44.586,2.23C44.838,1.294 45.522,0.826 46.638,0.826C47.394,0.826 47.916,1.132 48.204,1.744C48.492,2.32 48.528,3.022 48.312,3.85L37.295,41.218C37.116,41.794 36.828,42.244 36.432,42.568C36.072,42.856 35.64,43 35.136,43C34.632,43 34.182,42.838 33.786,42.514C33.426,42.19 33.174,41.776 33.03,41.272L23.634,6.982L24.93,6.982L15.588,41.218C15.408,41.758 15.12,42.19 14.724,42.514C14.364,42.838 13.932,43 13.428,43ZM61.17,43.27C58.254,43.27 55.662,42.64 53.394,41.38C51.162,40.084 49.398,38.302 48.102,36.034C46.842,33.766 46.212,31.174 46.212,28.258C46.212,25.306 46.806,22.714 47.994,20.482C49.218,18.214 50.892,16.432 53.016,15.136C55.14,13.84 57.588,13.192 60.36,13.192C63.096,13.192 65.472,13.822 67.488,15.082C69.54,16.306 71.124,18.016 72.24,20.212C73.356,22.408 73.914,24.91 73.914,27.718C73.914,28.294 73.734,28.762 73.374,29.122C73.014,29.446 72.546,29.608 71.97,29.608L49.02,29.608L49.02,26.152L72.402,26.152L70.08,27.826C70.116,25.738 69.738,23.866 68.946,22.21C68.154,20.554 67.02,19.258 65.544,18.322C64.104,17.386 62.376,16.918 60.36,16.918C58.308,16.918 56.508,17.404 54.96,18.376C53.412,19.348 52.206,20.698 51.342,22.426C50.514,24.118 50.1,26.062 50.1,28.258C50.1,30.454 50.568,32.398 51.504,34.09C52.476,35.782 53.79,37.114 55.446,38.086C57.102,39.058 59.01,39.544 61.17,39.544C62.466,39.544 63.762,39.328 65.058,38.896C66.39,38.428 67.452,37.852 68.244,37.168C68.64,36.844 69.09,36.682 69.594,36.682C70.098,36.646 70.53,36.772 70.89,37.06C71.358,37.492 71.592,37.96 71.592,38.464C71.628,38.968 71.43,39.4 70.998,39.76C69.81,40.768 68.298,41.614 66.462,42.298C64.626,42.946 62.862,43.27 61.17,43.27ZM92.098,43.27C89.326,43.27 86.842,42.622 84.646,41.326C82.45,39.994 80.704,38.194 79.408,35.926C78.147,33.658 77.518,31.102 77.518,28.258C77.518,25.378 78.166,22.804 79.462,20.536C80.794,18.268 82.594,16.486 84.862,15.19C87.129,13.858 89.686,13.192 92.53,13.192C95.374,13.192 97.912,13.858 100.144,15.19C102.412,16.486 104.194,18.268 105.49,20.536C106.822,22.804 107.506,25.378 107.542,28.258L105.868,29.554C105.868,32.146 105.256,34.486 104.032,36.574C102.844,38.626 101.206,40.264 99.118,41.488C97.066,42.676 94.726,43.27 92.098,43.27ZM92.53,39.49C94.618,39.49 96.472,39.004 98.092,38.032C99.748,37.06 101.044,35.728 101.98,34.036C102.952,32.308 103.438,30.382 103.438,28.258C103.438,26.098 102.952,24.172 101.98,22.48C101.044,20.788 99.748,19.456 98.092,18.484C96.472,17.476 94.618,16.972 92.53,16.972C90.478,16.972 88.624,17.476 86.968,18.484C85.312,19.456 83.998,20.788 83.025,22.48C82.054,24.172 81.568,26.098 81.568,28.258C81.568,30.382 82.054,32.308 83.025,34.036C83.998,35.728 85.312,37.06 86.968,38.032C88.624,39.004 90.478,39.49 92.53,39.49ZM105.436,43C104.824,43 104.32,42.82 103.924,42.46C103.528,42.064 103.33,41.56 103.33,40.948L103.33,31.714L104.356,27.448L107.542,28.258L107.542,40.948C107.542,41.56 107.344,42.064 106.948,42.46C106.552,42.82 106.048,43 105.436,43ZM126.374,43C124.466,43 122.756,42.55 121.244,41.65C119.768,40.75 118.598,39.526 117.734,37.978C116.87,36.394 116.438,34.594 116.438,32.578L116.438,6.172C116.438,5.56 116.618,5.056 116.978,4.66C117.374,4.264 117.878,4.066 118.49,4.066C119.102,4.066 119.606,4.264 120.002,4.66C120.398,5.056 120.596,5.56 120.596,6.172L120.596,32.578C120.596,34.414 121.136,35.926 122.216,37.114C123.296,38.266 124.682,38.842 126.374,38.842L127.832,38.842C128.408,38.842 128.876,39.04 129.236,39.436C129.596,39.832 129.776,40.336 129.776,40.948C129.776,41.56 129.56,42.064 129.128,42.46C128.696,42.82 128.156,43 127.508,43L126.374,43ZM112.928,18.16C112.388,18.16 111.938,17.998 111.578,17.674C111.218,17.314 111.038,16.882 111.038,16.378C111.038,15.838 111.218,15.406 111.578,15.082C111.938,14.722 112.388,14.542 112.928,14.542L126.698,14.542C127.238,14.542 127.688,14.722 128.048,15.082C128.408,15.406 128.588,15.838 128.588,16.378C128.588,16.882 128.408,17.314 128.048,17.674C127.688,17.998 127.238,18.16 126.698,18.16L112.928,18.16ZM161.061,43C160.449,43 159.945,42.802 159.549,42.406C159.153,42.01 158.955,41.524 158.955,40.948L158.955,26.908C158.955,24.676 158.523,22.84 157.659,21.4C156.831,19.96 155.679,18.88 154.203,18.16C152.763,17.44 151.125,17.08 149.289,17.08C147.525,17.08 145.923,17.422 144.483,18.106C143.079,18.79 141.963,19.726 141.135,20.914C140.307,22.102 139.893,23.452 139.893,24.964L136.923,24.964C136.995,22.696 137.607,20.68 138.759,18.916C139.911,17.116 141.441,15.712 143.349,14.704C145.257,13.66 147.381,13.138 149.721,13.138C152.277,13.138 154.563,13.678 156.579,14.758C158.595,15.802 160.179,17.35 161.331,19.402C162.519,21.454 163.113,23.956 163.113,26.908L163.113,40.948C163.113,41.524 162.915,42.01 162.519,42.406C162.123,42.802 161.637,43 161.061,43ZM137.841,43C137.193,43 136.671,42.82 136.275,42.46C135.915,42.064 135.735,41.56 135.735,40.948L135.735,15.568C135.735,14.92 135.915,14.416 136.275,14.056C136.671,13.66 137.193,13.462 137.841,13.462C138.453,13.462 138.939,13.66 139.299,14.056C139.695,14.416 139.893,14.92 139.893,15.568L139.893,40.948C139.893,41.56 139.695,42.064 139.299,42.46C138.939,42.82 138.453,43 137.841,43ZM137.841,30.958C137.193,30.958 136.671,30.76 136.275,30.364C135.915,29.968 135.735,29.464 135.735,28.852L135.735,2.932C135.735,2.284 135.915,1.78 136.275,1.42C136.671,1.024 137.193,0.826 137.841,0.826C138.453,0.826 138.939,1.024 139.299,1.42C139.695,1.78 139.893,2.284 139.893,2.932L139.893,28.852C139.893,29.464 139.695,29.968 139.299,30.364C138.939,30.76 138.453,30.958 137.841,30.958ZM184.862,43.27C181.946,43.27 179.354,42.64 177.086,41.38C174.854,40.084 173.09,38.302 171.794,36.034C170.534,33.766 169.904,31.174 169.904,28.258C169.904,25.306 170.498,22.714 171.686,20.482C172.91,18.214 174.584,16.432 176.708,15.136C178.832,13.84 181.28,13.192 184.052,13.192C186.788,13.192 189.164,13.822 191.18,15.082C193.232,16.306 194.816,18.016 195.932,20.212C197.048,22.408 197.606,24.91 197.606,27.718C197.606,28.294 197.426,28.762 197.066,29.122C196.706,29.446 196.238,29.608 195.662,29.608L172.712,29.608L172.712,26.152L196.094,26.152L193.772,27.826C193.808,25.738 193.43,23.866 192.638,22.21C191.846,20.554 190.712,19.258 189.236,18.322C187.796,17.386 186.068,16.918 184.052,16.918C182,16.918 180.2,17.404 178.652,18.376C177.104,19.348 175.898,20.698 175.034,22.426C174.206,24.118 173.792,26.062 173.792,28.258C173.792,30.454 174.26,32.398 175.196,34.09C176.168,35.782 177.482,37.114 179.138,38.086C180.794,39.058 182.702,39.544 184.862,39.544C186.158,39.544 187.454,39.328 188.75,38.896C190.082,38.428 191.144,37.852 191.936,37.168C192.332,36.844 192.782,36.682 193.286,36.682C193.79,36.646 194.222,36.772 194.582,37.06C195.05,37.492 195.284,37.96 195.284,38.464C195.32,38.968 195.122,39.4 194.69,39.76C193.502,40.768 191.99,41.614 190.154,42.298C188.318,42.946 186.554,43.27 184.862,43.27ZM212.873,43C212.009,43 211.361,42.532 210.929,41.596L198.941,16.162C198.725,15.694 198.707,15.226 198.887,14.758C199.067,14.29 199.427,13.93 199.967,13.678C200.471,13.426 200.957,13.39 201.425,13.57C201.893,13.75 202.253,14.074 202.505,14.542L214.007,39.436L211.793,39.436L223.133,14.542C223.349,14.038 223.709,13.714 224.213,13.57C224.753,13.39 225.275,13.408 225.779,13.624C226.283,13.876 226.625,14.254 226.805,14.758C226.985,15.226 226.967,15.676 226.751,16.108L214.925,41.596C214.493,42.532 213.809,43 212.873,43ZM244.15,43.27C241.234,43.27 238.642,42.64 236.374,41.38C234.142,40.084 232.378,38.302 231.082,36.034C229.822,33.766 229.192,31.174 229.192,28.258C229.192,25.306 229.786,22.714 230.974,20.482C232.198,18.214 233.872,16.432 235.996,15.136C238.12,13.84 240.568,13.192 243.34,13.192C246.076,13.192 248.452,13.822 250.468,15.082C252.52,16.306 254.104,18.016 255.22,20.212C256.336,22.408 256.894,24.91 256.894,27.718C256.894,28.294 256.714,28.762 256.354,29.122C255.994,29.446 255.526,29.608 254.95,29.608L232,29.608L232,26.152L255.382,26.152L253.06,27.826C253.096,25.738 252.718,23.866 251.926,22.21C251.134,20.554 250,19.258 248.524,18.322C247.084,17.386 245.356,16.918 243.34,16.918C241.288,16.918 239.488,17.404 237.94,18.376C236.392,19.348 235.186,20.698 234.322,22.426C233.494,24.118 233.08,26.062 233.08,28.258C233.08,30.454 233.548,32.398 234.484,34.09C235.456,35.782 236.77,37.114 238.426,38.086C240.082,39.058 241.99,39.544 244.15,39.544C245.446,39.544 246.742,39.328 248.038,38.896C249.37,38.428 250.432,37.852 251.224,37.168C251.62,36.844 252.07,36.682 252.574,36.682C253.078,36.646 253.51,36.772 253.87,37.06C254.338,37.492 254.572,37.96 254.572,38.464C254.608,38.968 254.41,39.4 253.978,39.76C252.79,40.768 251.278,41.614 249.442,42.298C247.606,42.946 245.842,43.27 244.15,43.27ZM264.846,24.802C264.954,22.57 265.53,20.572 266.574,18.808C267.654,17.044 269.04,15.658 270.732,14.65C272.46,13.642 274.368,13.138 276.456,13.138C278.112,13.138 279.39,13.372 280.29,13.84C281.19,14.308 281.532,14.992 281.316,15.892C281.172,16.432 280.92,16.792 280.56,16.972C280.236,17.152 279.822,17.224 279.318,17.188C278.85,17.152 278.31,17.116 277.698,17.08C275.682,16.9 273.882,17.116 272.298,17.728C270.75,18.304 269.508,19.204 268.572,20.428C267.672,21.652 267.222,23.11 267.222,24.802L264.846,24.802ZM265.17,43C264.522,43 264.018,42.82 263.658,42.46C263.298,42.1 263.118,41.596 263.118,40.948L263.118,15.514C263.118,14.866 263.298,14.362 263.658,14.002C264.018,13.642 264.522,13.462 265.17,13.462C265.818,13.462 266.322,13.642 266.682,14.002C267.042,14.362 267.222,14.866 267.222,15.514L267.222,40.948C267.222,41.596 267.042,42.1 266.682,42.46C266.322,42.82 265.818,43 265.17,43Z" style="fill:white;fill-rule:nonzero;"/>
        </g>
    </g>
</svg>
