<?xml version="1.0" encoding="UTF-8" standalone="no"?>
<!DOCTYPE svg PUBLIC "-//W3C//DTD SVG 1.1//EN" "http://www.w3.org/Graphics/SVG/1.1/DTD/svg11.dtd">
<svg width="100%" height="100%" viewBox="0 0 16 15" version="1.1" xmlns="http://www.w3.org/2000/svg" xmlns:xlink="http://www.w3.org/1999/xlink" xml:space="preserve" xmlns:serif="http://www.serif.com/" style="fill-rule:evenodd;clip-rule:evenodd;stroke-linejoin:round;stroke-miterlimit:2;">
    <g transform="matrix(1,0,0,1,-811.722,-475.979)">
        <g transform="matrix(1,0,0,1,799.722,462.979)">
            <path d="M12.707,21.485L13.778,20.414L13.778,27.056L25.778,27.056L25.778,26.056L25.778,26.056L25.778,20.414L26.849,21.485L27.556,20.778L20.485,13.707L19.778,13L19.071,13.707L12,20.778L12.707,21.485ZM14.778,26.056L14.778,19.414L19.778,14.414L24.778,19.414L24.778,26.056L21.778,26.056L21.778,22.056L21.778,21.056L17.778,21.056L17.778,26.056L14.778,26.056ZM18.778,22.056L18.778,26.056L20.778,26.056L20.778,22.056L18.778,22.056Z" style="fill:rgb(37,74,93);"/>
        </g>
    </g>
</svg>
